<?xml version="1.0" encoding="UTF-8"?>
<svg xmlns="http://www.w3.org/2000/svg" id="Layer_1" data-name="Layer 1" viewBox="0 0 254.72 22.17" data-v-7d3ab499="" class="">
  <defs data-v-7d3ab499=""></defs>
  <path d="M404.38 299.71a3.16 3.16 0 013.41-2.62 2.56 2.56 0 012.62 2.62zm11.73 3.09c0-6.07-2.67-9.54-8.86-9.54a8.31 8.31 0 00-8.57 8.25c0 5.19 4.1 8.13 9.08 8.13 3.54 0 6.82-1.56 8-4.93h-5.56a3 3 0 01-2.48 1.1 3.25 3.25 0 01-3.39-3zm32.74-3.09a3.17 3.17 0 013.42-2.62 2.56 2.56 0 012.61 2.62zm11.73 3.09c0-6.07-2.67-9.54-8.85-9.54a8.32 8.32 0 00-8.58 8.25c0 5.19 4.11 8.13 9.09 8.13 3.54 0 6.81-1.56 8-4.93h-5.54a3 3 0 01-2.49 1.1 3.25 3.25 0 01-3.39-3zm.65-9.15H467v2a6.33 6.33 0 015.4-2.37 5 5 0 015.34 5.27v10.72h-5.94v-8.19c0-1.81-.56-3.07-2.29-3.07-1 0-2.36.51-2.36 3v8.25h-5.94zm25.42.01h3.18v3.66h-3.18v5.44c0 1.44.33 2.07 1.83 2.07a10.2 10.2 0 001.35-.09v4.52c-1.2 0-2.55.18-3.81.18-2.52 0-5.31-.39-5.31-4.67v-7.45h-2.64v-3.66h2.64v-4.75h5.94zm4.49.03h5.7v2.5h.06a3.92 3.92 0 014.12-2.54h2v5.15a6 6 0 00-2.34-.39c-2.34 0-3.6 1.38-3.6 4.72v6.15h-5.94zm13.04-.04v10.72a5 5 0 005.34 5.27c2.36 0 4.65-.81 5.76-2.37h.06v2h5.73v-15.6h-5.94v8.25c0 2.5-1.7 3-2.71 3-1.74 0-2.3-1.26-2.3-3.07v-8.19m12.24-.01h5.73v2.07h.06c1.2-1.8 3.64-2.46 5.8-2.46a4.63 4.63 0 014.2 2.43 8.21 8.21 0 016-2.43c4 0 5.35 2.75 5.35 5.27v10.72h-5.94v-8.46c0-1.48-.16-2.8-1.95-2.8a2.71 2.71 0 00-2.71 2.8v8.46H533v-8.46c0-1.48-.68-2.8-2.48-2.8-1.49 0-2.18 1.17-2.18 2.8v8.46h-5.94zM326 300.37a3.77 3.77 0 01.14 1.06c0 1.65-.3 3.87-2.55 3.87a1.63 1.63 0 01-1.45-.48zm-4.77 2.8a6.73 6.73 0 01-.18-1.74c0-1.64.3-3.83 2.54-3.83a2.07 2.07 0 011.77.78zm8.19-9.47l-.76.89a9.27 9.27 0 00-5.07-1.33c-5.84 0-8.48 3.85-8.48 8.17a8.2 8.2 0 002.37 6.07l-1.48 1.75h2.19l.65-.76a8.77 8.77 0 004.78 1.14c5.84 0 8.49-3.88 8.49-8.2a7.31 7.31 0 00-2-5.66l1.79-2.07zm14.96 7.73c0 1.86-.48 3.87-2.6 3.87s-3.14-2-3.14-3.87 1-3.83 3.14-3.83 2.6 2 2.6 3.83m5.73-12.5h-5.94v6.44h-.06a5.07 5.07 0 00-4.25-2.11c-5.22 0-7.16 4.45-7.16 8.11 0 3.9 2.66 8.26 7.07 8.26 2.9 0 3.8-1.11 4.55-2.1h.06v1.71h5.73zm13.04 12.54c0 1.65-.65 3.87-2.89 3.87s-2.9-2.22-2.9-3.87.66-3.84 2.9-3.84 2.89 2.19 2.89 3.84m5.94 0c0-4.32-3-8.17-8.83-8.17s-8.84 3.85-8.84 8.17 3 8.2 8.84 8.2 8.83-3.88 8.83-8.2" transform="translate(-294.78 -287.5)" class="cls-1" data-v-7d3ab499=""></path>
  <path d="M85.62 21.74H78.6L73.5 6.15h6.27l2.43 9.49h.06l2.46-9.49h6.06l-5.16 15.59z" class="cls-1" data-v-7d3ab499=""></path>
  <path d="M386.65 293.69h5.7v2.5h.06a3.93 3.93 0 014.12-2.54h2v5.15a6.1 6.1 0 00-2.35-.39c-2.34 0-3.6 1.38-3.6 4.72v6.15h-5.94zm-85.27-.12h3.1c2.52 0 3.27.77 3.27 2.11 0 1.91-1.68 2.12-2.91 2.12h-3.46zm-6.6 15.68h6.6v-6.85h3.51c2.62 0 2.8 1.51 3 3.55a15.47 15.47 0 00.54 3.3H315c-.6-1-.63-3.54-.72-4.59-.24-2.67-1.35-4-3.15-4.73 2.21-.81 3.23-3.14 3.23-5.35 0-4.05-3.24-6.12-7-6.12h-12.58zm136.76-5.77a4.91 4.91 0 114.78-6h6.24a11.07 11.07 0 100 2.27h-6.24a4.92 4.92 0 01-4.78 3.77" transform="translate(-294.78 -287.5)" class="cls-1" data-v-7d3ab499=""></path>
  <path d="M433.94 298.53a2.42 2.42 0 11-2.42-2.41 2.42 2.42 0 012.42 2.41" transform="translate(-294.78 -287.5)" fill="#e30613" data-v-7d3ab499=""></path>
</svg>
